<?xml version="1.0" encoding="utf-8"?>
<!-- Generator: Adobe Illustrator 25.2.3, SVG Export Plug-In . SVG Version: 6.00 Build 0)  -->
<svg version="1.1" id="Layer_1" xmlns="http://www.w3.org/2000/svg" xmlns:xlink="http://www.w3.org/1999/xlink" x="0px" y="0px"
	 viewBox="0 0 17.7 22.3" style="enable-background:new 0 0 17.7 22.3;" xml:space="preserve">
<style type="text/css">
	.st0{opacity:0.1;fill:#FFFFFF;enable-background:new    ;}
</style>
<g>
	<path class="st0" d="M17.2,16.2c0.2,0.3,0.4,0.6,0.5,0.9v-3.4C16.8,14.3,16.7,15,17.2,16.2z"/>
	<path class="st0" d="M15.8,20c-0.6-0.7-1.2-1.4-1.9-2c-0.6-0.5-1.4-0.5-2,0c-0.9,0.7-1.6,1.5-2.3,2.4c-0.5,0.7-1.2,1.3-1.8,1.9
		c0,0,0,0,0,0h10v-0.2C17,21.5,16.4,20.8,15.8,20z"/>
	<path class="st0" d="M3.6,22.3h2.6C5.8,22,5.7,21.5,5.9,21c0.2-0.8,0.6-1.6,1.1-2.3c0.5-0.9,1-1.7,1.5-2.7c0.7-1.3,0.5-1.7-0.8-2.3
		c-1.3-0.6-2.4-1.1-3.6-1.6C3.5,11.8,3,11.5,2.5,11C2.1,10.6,2,10,2.2,9.5c0.2-0.5,0.7-0.7,1.1-0.7c1.1,0,2.1,0.2,3.1,0.6
		C7.2,9.6,7.9,9.8,8.7,10c1.5,0.3,2.1-0.2,2.2-1.7C11,7,11.1,5.8,11.1,4.6c0-0.6,0.2-1.2,0.4-1.8c0.2-0.6,0.8-1,1.4-0.9
		c0.6,0,1.2,0.3,1.4,0.9c0.3,0.7,0.4,1.5,0.5,2.3c0,1.1,0.1,2.3,0.2,3.4c0.1,0.6,0.1,1.3,0.9,1.4c0.4-0.1,0.8,0.2,1.1,0
		c0.2,0,0.4,0,0.6-0.1V2.1c-0.9-0.6-1.9-1.1-2.9-1.6c-1.3-0.6-2.9-0.6-4.2,0.2C7.6,2,4.7,3.9,2.3,6.3c-0.9,0.7-1.6,1.5-2,2.5
		C0,9.5-0.1,10.3,0.1,11.1C0.6,15,1.8,18.8,3.6,22.3z"/>
</g>
</svg>
